<svg width="18" height="20" viewBox="0 0 18 20" fill="none" xmlns="http://www.w3.org/2000/svg">
<path d="M4.11972 13.1334C2.84643 13.8916 -0.49207 15.4397 1.5413 17.3769C2.53458 18.3232 3.64084 19 5.03168 19H12.9681C14.359 19 15.4652 18.3232 16.4585 17.3769C18.4919 15.4397 15.1534 13.8916 13.8801 13.1334C10.8942 11.3555 7.10557 11.3555 4.11972 13.1334Z" stroke="#FF6154" stroke-width="1.5" stroke-linecap="round" stroke-linejoin="round"/>
<path d="M13.05 5.05C13.05 7.28675 11.2367 9.1 8.99995 9.1C6.7632 9.1 4.94995 7.28675 4.94995 5.05C4.94995 2.81325 6.7632 1 8.99995 1C11.2367 1 13.05 2.81325 13.05 5.05Z" stroke="#FF6154" stroke-width="1.5"/>
</svg>
