<svg width="16" height="20" viewBox="0 0 16 20" fill="none" xmlns="http://www.w3.org/2000/svg">
<g opacity="01">
<path d="M1.4036 15.8093C1.59659 17.2447 2.78385 18.3692 4.22865 18.4357C5.44439 18.4917 6.67936 18.5208 8.03934 18.5208C9.39932 18.5208 10.6343 18.4917 11.85 18.4357C13.2948 18.3692 14.4821 17.2447 14.6751 15.8093C14.801 14.8725 14.9049 13.9125 14.9049 12.9349C14.9049 11.9573 14.801 10.9973 14.6751 10.0605C14.4821 8.62516 13.2948 7.50064 11.85 7.43413C10.6343 7.37816 9.39932 7.34897 8.03934 7.34897C6.67936 7.34897 5.44439 7.37816 4.22865 7.43413C2.78385 7.50064 1.59659 8.62516 1.4036 10.0605C1.27765 10.9973 1.17377 11.9573 1.17377 12.9349C1.17377 13.9125 1.27765 14.8725 1.4036 15.8093Z" stroke="#FF6154" stroke-width="1.5"/>
<path d="M4.17746 7.34897V5.20053C4.17746 3.06474 5.90648 1.33334 8.03934 1.33334C10.1722 1.33334 11.9012 3.06474 11.9012 5.20053V7.34897" stroke="#FF6154" stroke-width="1.5" stroke-linecap="round" stroke-linejoin="round"/>
<path d="M8.03598 12.9349H8.04369" stroke="#FF6154" stroke-width="2" stroke-linecap="round" stroke-linejoin="round"/>
</g>
</svg>
