<svg width="18" height="16" viewBox="0 0 18 16" fill="none" xmlns="http://www.w3.org/2000/svg">
<path d="M5.31384 15.1543H12.7649C14.1442 15.1543 15.2438 14.7493 15.9983 13.98C16.7525 13.211 17.1492 12.0909 17.1492 10.686V5.36822C17.1492 3.96333 16.7525 2.84328 15.9983 2.07426C15.2438 1.30497 14.1442 0.9 12.7649 0.9H5.31384C3.93451 0.9 2.83494 1.30497 2.08043 2.07426C1.32618 2.84328 0.92951 3.96333 0.92951 5.36822V10.686C0.92951 12.0909 1.32618 13.211 2.08043 13.98C2.83494 14.7493 3.93451 15.1543 5.31384 15.1543ZM2.24716 5.36822C2.24716 4.29609 2.50276 3.51893 3.00277 3.00913C3.50242 2.4997 4.26353 2.23953 5.31384 2.23953H12.7649C13.8152 2.23953 14.5763 2.4997 15.0759 3.00913C15.5759 3.51893 15.8315 4.29609 15.8315 5.36822V10.686C15.8315 11.7582 15.5759 12.5353 15.0759 13.0451C14.5763 13.5546 13.8152 13.8147 12.7649 13.8147H5.31384C4.26353 13.8147 3.50242 13.5546 3.00277 13.0451C2.50276 12.5353 2.24716 11.7582 2.24716 10.686V5.36822Z" fill="#800000" stroke="#800000" stroke-width="0.2"/>
<path d="M4.89969 6.26567L4.89969 6.26567L4.90034 6.2662L7.23212 8.16511C7.73677 8.58447 8.39348 8.78804 9.03919 8.78804C9.68459 8.78804 10.3416 8.58464 10.8391 8.16488L13.1696 6.26698C13.46 6.04173 13.5018 5.61467 13.2761 5.32999C13.0546 5.03352 12.6321 4.99002 12.351 5.22255C12.3509 5.22264 12.3508 5.22273 12.3507 5.22282L10.0192 7.12151L10.019 7.12166C9.7568 7.33623 9.39855 7.44661 9.03546 7.44661C8.67237 7.44661 8.31412 7.33623 8.05192 7.12166L8.05174 7.12151L5.72023 5.22282C5.72012 5.22272 5.72 5.22263 5.71989 5.22254C5.43588 4.98758 5.02234 5.04447 4.79587 5.32866C4.56673 5.6162 4.62111 6.0349 4.89969 6.26567Z" fill="#800000" stroke="#800000" stroke-width="0.2"/>
</svg>
