<svg width="48" height="35" viewBox="0 0 48 35" fill="none" xmlns="http://www.w3.org/2000/svg">
<path d="M41.784 29.875C43.3294 29.875 44.5586 28.9025 45.6623 27.5426C47.9217 24.7589 44.2121 22.5342 42.7973 21.4447C41.3591 20.3372 39.7532 19.7098 38.125 19.5625M36.0625 15.4375C38.9102 15.4375 41.2188 13.129 41.2188 10.2812C41.2188 7.43353 38.9102 5.125 36.0625 5.125" stroke="#BDBDBD" stroke-width="2" stroke-linecap="round"/>
<path d="M5.59104 29.875C4.0456 29.875 2.81638 28.9025 1.71269 27.5426C-0.546692 24.7589 3.16288 22.5342 4.57771 21.4447C6.01595 20.3372 7.62183 19.7098 9.25 19.5625M10.2812 15.4375C7.43353 15.4375 5.125 13.129 5.125 10.2812C5.125 7.43353 7.43353 5.125 10.2812 5.125" stroke="#BDBDBD" stroke-width="2" stroke-linecap="round"/>
<path d="M15.6103 23.9168C13.5029 25.2199 7.97741 27.8807 11.3428 31.2103C12.9868 32.8368 14.8178 34 17.1197 34H30.2553C32.5572 34 34.3882 32.8368 36.0322 31.2103C39.3976 27.8807 33.8721 25.2199 31.7647 23.9168C26.8228 20.8611 20.5522 20.8611 15.6103 23.9168Z" stroke="#BDBDBD" stroke-width="2" stroke-linecap="round" stroke-linejoin="round"/>
<path d="M30.9062 8.21875C30.9062 12.2056 27.6743 15.4375 23.6875 15.4375C19.7007 15.4375 16.4688 12.2056 16.4688 8.21875C16.4688 4.23194 19.7007 1 23.6875 1C27.6743 1 30.9062 4.23194 30.9062 8.21875Z" stroke="#BDBDBD" stroke-width="2"/>
</svg>
