<svg width="297" height="224" viewBox="0 0 297 224" fill="none" xmlns="http://www.w3.org/2000/svg">
<g clip-path="url(#clip0_346_9416)">
<path d="M44.5842 224C36.1512 221.774 28.2821 219.088 22.0102 212.893C13.2954 204.255 7.63431 190.776 12.0739 179.186C14.376 173.16 19.027 168.466 23.2317 163.626C34.8123 150.269 44.0439 132.508 40.2855 115.013C38.8056 108.141 35.4465 101.873 33.3559 95.1947C29.2217 81.9584 30.3257 67.3671 34.6479 54.1792C38.97 40.9914 46.3694 29.086 54.7319 18.1485C57.997 13.8897 61.4735 9.67927 65.9601 6.84811C70.4467 4.01696 76.1078 2.71027 81.0407 4.62191C86.7018 6.79972 90.1784 12.5588 93.7019 17.6162C97.2254 22.6977 102.041 27.8519 108.101 27.7793C110.591 27.7551 112.987 26.8114 115.195 25.6499C122.407 21.8024 127.974 15.39 134.575 10.502C143.242 4.06536 153.789 0.387273 164.454 0.0243048C173.028 -0.26607 181.837 1.66976 188.86 6.70293C196.776 12.3894 201.803 21.5846 204.457 31.167C207.088 40.7252 207.582 50.7673 208.051 60.7127C208.498 70.053 219.444 77.9174 227.971 81.0873C236.146 84.112 245.448 83.5313 253.105 87.7175C259.025 90.9358 263.277 96.6949 266.518 102.72C269.478 108.213 271.803 114.335 271.451 120.602C271.122 126.41 268.538 131.782 266.612 137.226C264.874 142.187 263.652 147.341 262.995 152.568C262.83 153.899 262.713 155.278 263.159 156.536C263.746 158.158 265.203 159.222 266.589 160.166C272.485 164.135 279.179 167.764 282.304 174.249C285.122 180.105 284.371 187.026 283.384 193.487C282.444 199.73 281.34 206.069 278.569 211.732C275.797 217.394 271.146 222.355 265.203 223.976H44.5842V224Z" fill="#353535"/>
<path d="M67.4869 169.41C59.1949 157.48 47.6848 149.059 41.8592 135.097C36.6914 122.708 34.7887 108.528 26.7551 97.566C21.4934 90.4034 11.1577 84.1845 4.34562 91.1777C-3.71147 99.4534 1.47983 114.432 3.80535 124.837C4.65099 128.563 5.47314 132.314 6.31878 136.041C7.04697 139.356 8.57383 143.445 8.1745 146.833C7.75168 150.39 4.83891 151.455 3.28857 154.189C1.92614 156.609 1.71473 159.706 1.57379 162.562C0.96305 175.314 4.27515 188.405 10.5705 199.633C13.7651 205.343 17.7584 210.643 22.4095 215.047C23.1377 215.749 24.3357 216.934 25.6981 218.047C32.5102 224.169 41.9767 224.387 49.7519 221.435C59.007 217.902 68.8023 210.74 73.1715 200.867C77.799 190.365 73.9466 178.677 67.5104 169.41H67.4869Z" fill="#97BA36"/>
<path d="M43.5506 165.272C40.0506 169.047 37.8895 174.37 37.2552 179.597C36.7385 177.927 36.2452 176.282 35.7284 174.612C32.9801 165.877 30.1143 157.19 27.131 148.551C28.6109 144.8 30.5136 141.05 31.6176 137.178C31.7586 136.646 31.0774 136.404 30.772 136.815C28.7753 139.695 27.5069 143.3 26.5203 146.736C23.772 138.872 20.9532 131.056 18.0169 123.264C17.8055 122.708 16.8659 122.925 17.0773 123.506C18.6511 127.983 20.1545 132.459 21.6813 136.936C19.6847 134.976 17.1008 133.209 14.6813 132.29C14.329 132.169 14.0471 132.677 14.3055 132.919C15.5504 134.056 16.9598 134.928 18.3458 135.92C19.7082 136.912 21.0001 138.025 22.386 138.969C24.5941 145.478 26.7552 152.011 28.8458 158.569C27.7183 157.432 26.4498 156.391 25.1814 155.423C23.2082 153.899 21.1646 152.326 18.7686 151.503C18.4632 151.406 18.2283 151.818 18.4632 152.035C20.3659 153.778 22.6679 155.036 24.7116 156.609C26.2854 157.819 27.7888 159.174 29.4096 160.335C30.9834 165.223 32.5103 170.135 34.0371 175.048C35.5875 180.105 37.0908 185.187 38.5942 190.292C33.6143 185.888 27.8122 181.581 21.4934 179.524C20.9297 179.331 20.6243 180.153 21.0941 180.444C27.4129 184.412 33.6378 187.776 39.1814 192.857C39.2284 192.906 39.2989 192.93 39.3694 192.954C40.121 195.519 40.8727 198.108 41.6009 200.697C44.0909 209.457 46.6983 214.635 49.7285 223.201C50.0338 224.073 51.3258 223.758 51.1614 222.814C49.611 214.127 46.0875 209.481 43.6915 201.012C42.0002 195.035 40.215 189.082 38.4063 183.13C39.2754 176.79 41.366 171.636 44.5137 165.949C44.8191 165.393 44.0909 164.764 43.6211 165.272H43.5506Z" fill="#7D9624"/>
<path d="M137.229 145.768C144.793 130.233 156.749 118.183 161.024 100.76C164.83 85.2734 164.501 68.3349 171.947 53.9855C176.81 44.5967 187.803 35.3773 197.011 42.2495C207.934 50.38 204.551 68.9156 203.682 81.5227C203.377 86.0477 203.071 90.5728 202.766 95.0978C202.484 99.1146 201.451 104.196 202.531 108.068C203.659 112.133 207.276 112.835 209.555 115.739C211.598 118.304 212.397 121.885 213.055 125.2C216.038 140.009 214.535 155.931 209.202 170.256C206.477 177.564 202.766 184.509 198.115 190.534C197.387 191.502 196.189 193.123 194.826 194.648C187.967 203.093 176.927 205.174 167.32 203.19C155.856 200.843 143.125 194.309 136.242 183.59C128.937 172.192 131.356 157.795 137.229 145.72V145.768Z" fill="#97BA36"/>
<path d="M164.478 136.355C169.246 140.082 172.723 145.913 174.414 151.89C174.719 149.858 175.001 147.825 175.306 145.768C176.927 135.024 178.736 124.329 180.686 113.658C178.266 109.544 175.377 105.527 173.404 101.22C173.122 100.639 173.897 100.204 174.343 100.639C177.186 103.615 179.323 107.608 181.109 111.431C182.894 101.728 184.796 92.0246 186.84 82.3455C186.981 81.6437 188.132 81.7405 187.991 82.4665C186.958 87.9836 185.994 93.5249 185.031 99.0662C187.028 96.4044 189.706 93.8153 192.384 92.2908C192.783 92.073 193.182 92.6296 192.924 92.9441C191.679 94.517 190.176 95.7995 188.743 97.2272C187.333 98.6549 186.018 100.179 184.562 101.559C183.152 109.592 181.813 117.65 180.521 125.708C181.649 124.159 182.917 122.708 184.233 121.328C186.276 119.175 188.39 116.948 191.021 115.521C191.35 115.351 191.703 115.787 191.491 116.077C189.565 118.473 187.122 120.409 185.008 122.611C183.364 124.329 181.86 126.192 180.192 127.862C179.253 133.887 178.313 139.912 177.444 145.938C176.528 152.156 175.682 158.399 174.86 164.618C179.911 158.496 185.9 152.374 192.924 148.769C193.558 148.454 194.052 149.349 193.558 149.761C186.887 155.617 180.192 160.722 174.625 167.74C174.578 167.812 174.508 167.861 174.437 167.909C174.038 171.055 173.615 174.225 173.216 177.371C171.877 188.09 169.763 194.624 167.766 205.222C167.555 206.311 165.981 206.166 166.028 205.053C166.263 194.6 169.551 188.477 170.843 178.121C171.759 170.813 172.77 163.505 173.803 156.197C171.666 148.938 168.283 143.3 163.561 137.251C163.115 136.67 163.843 135.799 164.478 136.283V136.355Z" fill="#7D9624"/>
<path d="M40.238 164.062C39.0635 144.776 43.6206 126.579 38.5232 107.173C33.9897 89.9436 25.0165 73.4648 24.3352 55.4374C23.8889 43.6288 29.0333 28.6987 40.8488 30.5378C54.8488 32.6914 61.3086 52.6788 67.0167 65.5279C69.0603 70.1255 71.1274 74.7473 73.1711 79.3449C74.9798 83.4344 76.6476 88.9757 79.6074 92.194C82.708 95.5817 86.3255 94.3476 89.8725 95.9689C93.0202 97.3966 95.5806 100.494 97.8826 103.373C108.171 116.295 114.983 132.774 117.544 149.664C118.836 158.278 119.071 167.087 117.99 175.483C117.826 176.814 117.591 179.04 117.144 181.291C115.312 193.244 106.456 201.181 96.7786 204.376C85.2685 208.175 70.4697 208.586 58.7717 201.738C46.3454 194.454 41.1306 179.04 40.2145 164.038L40.238 164.062Z" fill="#ACC941"/>
<path d="M68.1439 166.022C74.2748 166.917 80.2883 170.377 84.7279 174.902C83.9997 172.894 83.2715 170.91 82.5433 168.926C78.7614 158.375 75.1674 147.752 71.6909 137.105C67.5097 134.637 62.9291 132.508 59.0298 129.628C58.4895 129.241 58.9828 128.442 59.5935 128.636C63.6338 129.846 67.5097 132.363 70.9862 134.903C67.862 125.2 64.8318 115.448 61.966 105.648C61.7546 104.922 62.8352 104.438 63.0701 105.164C64.8318 110.681 66.664 116.198 68.4963 121.715C68.9896 118.279 70.1641 114.553 71.8319 111.794C72.0668 111.383 72.7245 111.673 72.654 112.109C72.3017 114.19 71.5735 116.126 70.9627 118.158C70.3755 120.167 69.9527 122.248 69.3184 124.232C71.9963 132.242 74.6976 140.203 77.4695 148.164C77.7279 146.18 78.1742 144.22 78.691 142.284C79.4896 139.259 80.3118 136.186 82.003 133.5C82.2145 133.161 82.7547 133.403 82.6843 133.766C82.1205 136.912 80.8286 139.936 80.0064 143.058C79.3722 145.454 78.9024 147.922 78.2211 150.317C80.3118 156.246 82.4024 162.174 84.5635 168.103C86.7715 174.201 89.0501 180.274 91.3521 186.324C92.9259 178.169 95.3689 169.531 99.926 162.61C100.325 162.005 101.218 162.537 100.983 163.191C97.8119 171.95 94.2649 180.032 92.644 189.252C92.644 189.349 92.5971 189.421 92.5501 189.494C93.7246 192.567 94.8756 195.64 96.0736 198.689C100.114 209.07 100.302 206.311 103.661 216.934C104.013 218.023 102.51 218.725 101.993 217.684C97.1072 208.102 98.1877 210.667 94.2883 200.625C91.54 193.535 88.8856 186.421 86.2548 179.258C80.7581 173.814 74.956 170.474 67.7446 167.425C67.0399 167.135 67.2983 165.949 68.0969 166.07L68.1439 166.022Z" fill="#7D9624"/>
<path d="M213.994 159.295C213.994 159.295 238.189 158.932 247.467 168.127C256.746 177.322 265.32 224 265.32 224H132.46C132.46 224 144.463 167.425 155.809 161.763C167.131 156.101 188.766 159.295 188.766 159.295H213.994Z" fill="#FF6154"/>
<path d="M92.6217 159.295C92.6217 159.295 68.4269 158.932 59.1483 168.127C49.8698 177.322 41.2959 224 41.2959 224H170.585C170.585 224 162.34 166.966 150.807 161.763C141.575 157.601 117.85 159.295 117.85 159.295H92.6217Z" fill="#6A86F3"/>
<path d="M92.6212 141.534V162.586C92.6212 162.586 92.1044 171.418 105.823 171.079C105.823 171.079 115.43 170.014 117.826 164.013V141.534H92.5977H92.6212Z" fill="#B67349"/>
<path d="M92.6211 141.534V146.47C92.6211 146.47 102.792 158.399 117.849 156.56V141.534H92.6211Z" fill="#9E5C38"/>
<path d="M213.97 141.776V162.828C213.97 162.828 214.487 171.66 200.769 171.321C200.769 171.321 191.162 170.256 188.766 164.255V141.776H213.994H213.97Z" fill="#FAC79C"/>
<path d="M155.316 178.314C155.316 178.314 164.688 177.419 166.427 181.92C168.165 186.421 161.329 187.703 161.329 187.703C161.329 187.703 156.021 183.759 155.104 181.46C154.87 180.879 155.316 178.314 155.316 178.314Z" fill="#9E5C38"/>
<path d="M161.799 211.635L176.198 223.927L198.162 224L178.806 205.416L169.598 182.96C169.598 182.96 167.695 175.87 165.111 175.87C162.527 175.87 153.836 175.943 154.282 178.774C154.822 182.138 160.765 181.388 163.138 182.549C163.608 182.791 163.937 184.557 163.937 184.557L161.823 211.635H161.799Z" fill="#FAC79C"/>
<path d="M113.504 224L148.622 193.414C148.622 193.414 160.202 185.985 164.618 184.267C167.954 182.96 178.853 180.831 179.159 184.267C179.487 187.752 176.786 188.235 176.786 188.235C176.786 188.235 180.051 187.461 180.709 189.639C181.296 191.551 180.521 193.607 179.487 194.285C179.487 194.285 183.293 196.487 179.816 199.947C179.816 199.947 183.575 202.173 178.689 205.15C178.689 205.15 166.192 210.522 161.823 211.635C159.568 212.216 152.638 212.796 152.638 212.796L138.803 223.976H113.527L113.504 224Z" fill="#B67349"/>
<path d="M158.182 181.484C158.182 181.484 160.249 181.049 161.635 182.331L158.581 182.404L158.182 181.484Z" fill="#E0AD86"/>
<path d="M153.812 181.75C156.584 181.097 162.316 181.412 163.537 183.977C163.843 184.63 163.749 185.622 161.353 185.84C159.333 186.034 151.51 187.776 150.125 185.598C148.739 183.42 152.239 182.113 153.812 181.75Z" fill="#FAC79C"/>
<path d="M149.984 184.364C150.43 183.904 154.047 183.517 158.37 183.977C160.202 184.17 161.4 185.622 161.071 185.864C160.014 186.638 148.269 186.154 149.96 184.364H149.984Z" fill="#E0AD86"/>
<path d="M150.219 184.315C152.991 183.662 160.789 183.831 161.306 186.372C161.494 187.268 160.813 188.211 158.393 188.429C156.373 188.623 147.917 190.341 146.531 188.163C145.145 185.985 148.645 184.678 150.219 184.315Z" fill="#FAC79C"/>
<path d="M146.837 188.139C147.283 187.655 151.887 185.695 157.172 186.372C158.394 186.517 159.075 188.066 158.37 188.453C157.243 189.082 145.122 189.954 146.837 188.139Z" fill="#E0AD86"/>
<path d="M146.836 188.139C149.608 187.292 158.37 184.993 158.37 188.453C158.37 190.704 154.142 192.059 154.142 192.059L144.135 194.212C144.135 194.212 140.705 190.002 146.836 188.139Z" fill="#FAC79C"/>
<path d="M143.994 193.341C144.205 192.591 147.893 189.615 153.742 190.099C154.635 190.171 155.198 191.26 154.141 192.035C153.084 192.809 143.336 195.761 143.994 193.317V193.341Z" fill="#E0AD86"/>
<path d="M141.574 197.648C141.574 194.89 143.547 192.494 150.054 190.897C156.561 189.3 154.282 193.172 151.229 195.592C148.175 198.011 141.574 201.52 141.574 197.648Z" fill="#FAC79C"/>
<path d="M169.527 189.494L176.786 188.26C176.786 188.26 172.933 187.51 169.527 189.494Z" fill="#9E5C38"/>
<path d="M172.934 195.229L179.487 194.285C179.487 194.285 176.081 193.438 172.934 195.229Z" fill="#9E5C38"/>
<path d="M174.766 200.455L179.722 199.875C179.722 199.875 177.537 199.197 174.766 200.455Z" fill="#9E5C38"/>
<path d="M126.095 95.7511C126.095 95.7511 141.88 140.299 117.168 147.389C92.4568 154.455 82.8493 126.531 82.8493 126.531C82.8493 126.531 80.5003 134.105 74.3224 126.337C68.1446 118.57 72.913 107.439 80.1245 113.101C80.1245 113.101 79.4433 86.9431 101.759 84.8137C124.074 82.6842 125.249 93.0409 126.142 95.7753L126.095 95.7511Z" fill="#B67349"/>
<path d="M103.191 76.6348C94.0303 77.0945 87.8759 80.2161 83.9296 84.5233C83.8356 84.0877 83.7652 83.628 83.6947 83.2166C83.4128 81.6679 82.9195 80.3128 81.9329 79.1029C81.3457 78.377 80.0537 78.9578 80.1007 79.8773C80.2182 81.6921 80.5 83.4586 81.0403 85.1766C78.5269 85.225 76.0839 84.5959 73.7819 86.1445C72.9597 86.7011 73.0537 88.0804 74.0638 88.3707C75.9665 88.8789 78.4564 89.3387 80.7115 89.1451C76.3893 97.3724 77.4463 107.608 80.1242 113.101C80.1242 113.101 100.889 113.101 105.259 90.113C105.259 90.113 109.98 96.1141 117.873 92.9441C117.873 92.9441 118.272 101.51 128.373 103.591C128.373 103.591 132.155 75.1587 103.191 76.659V76.6348Z" fill="#070000"/>
<path d="M213.994 141.776V146.712C213.994 146.712 203.823 158.641 188.766 156.802V141.776H213.994Z" fill="#E0AD86"/>
<path d="M180.522 95.9931C180.522 95.9931 164.736 140.541 189.448 147.631C214.159 154.697 223.767 126.773 223.767 126.773C223.767 126.773 228.841 132.508 233.069 125.515C238.237 116.997 233.726 107.656 226.515 113.319C226.515 113.319 227.196 87.1609 204.881 85.0314C182.565 82.902 181.391 93.2587 180.498 95.9931H180.522Z" fill="#FAC79C"/>
<path d="M226.186 80.6758C226.421 80.5548 226.632 80.4096 226.82 80.3128C227.901 79.6111 228.887 78.7158 229.545 77.5785C230.015 76.78 229.24 76.0782 228.488 76.175C227.079 76.3686 225.575 76.9009 224.33 77.7721C224.354 76.1024 223.109 73.9246 222.381 72.9083C221.793 72.0856 220.454 72.5453 220.713 73.6342C220.971 74.7715 221.23 75.933 221.511 77.0703C215.216 73.5132 206.501 72.6905 196.659 75.5943C178.807 80.8936 167.085 81.4501 167.085 81.4501C169.551 90.6211 180.028 90.2824 180.028 90.2824C175.189 92.9442 170.749 96.2835 170.749 96.2835C189.964 107.414 214.864 94.8558 214.864 94.8558C222.404 101.05 226.515 113.343 226.515 113.343C226.515 113.343 231.753 108.649 231.683 94.8558C231.683 89.1209 229.639 84.2813 226.186 80.7V80.6758Z" fill="#070000"/>
<path d="M76.2017 116.513C77.2352 115.497 79.7956 114.988 81.346 119.054C82.8963 123.119 80.4768 126.482 78.2453 125.248C76.0137 124.014 73.8761 118.739 76.1782 116.513H76.2017Z" fill="#9E5C38"/>
<path d="M231.166 116.513C230.132 115.497 227.572 114.988 226.021 119.054C224.471 123.119 226.89 126.482 229.122 125.248C231.354 124.014 233.491 118.739 231.189 116.513H231.166Z" fill="#E0AD86"/>
<path d="M72.4199 181.896L77.5642 224H81.1817L72.4199 181.896Z" fill="#4B69C9"/>
<path d="M235.37 181.896L230.226 224H226.632L235.37 181.896Z" fill="#BC0E00"/>
<path d="M113.505 114.069C114.068 115.908 114.374 117.747 114.585 119.61C114.797 121.449 114.914 123.313 114.914 125.152L114.162 124.063C114.609 124.256 114.961 124.45 115.36 124.668C115.736 124.885 116.112 125.176 116.441 125.49C116.793 125.805 117.122 126.168 117.404 126.652C117.662 127.136 117.85 127.813 117.733 128.442C117.615 129.072 117.286 129.556 116.934 129.894C116.582 130.233 116.229 130.475 115.83 130.669C115.078 131.056 114.28 131.274 113.481 131.395C114.092 130.838 114.703 130.33 115.196 129.773C115.713 129.265 116.065 128.588 115.995 128.249C115.948 127.959 115.642 127.596 115.102 127.208C114.844 127.039 114.538 126.87 114.256 126.7C113.974 126.555 113.622 126.386 113.34 126.289C112.894 126.119 112.612 125.708 112.588 125.248V125.2C112.518 123.361 112.541 121.498 112.659 119.634C112.8 117.771 113.011 115.932 113.481 114.069H113.505Z" fill="#070000"/>
<path d="M102.629 131.758C102.629 131.758 102.911 132.411 103.333 133.403C103.545 133.863 103.803 134.347 104.062 134.807C104.39 135.242 104.649 135.702 105.048 136.016C105.401 136.404 105.847 136.67 106.293 136.96C106.552 137.057 106.763 137.202 106.998 137.347C107.233 137.444 107.491 137.541 107.703 137.662C108.149 137.904 108.572 138.001 108.854 138.17C109.135 138.315 109.323 138.412 109.323 138.412C109.323 138.412 109.159 138.509 108.854 138.654C108.548 138.775 108.102 139.017 107.538 139.065C106.974 139.186 106.293 139.162 105.565 138.993C105.213 138.872 104.813 138.751 104.461 138.581C104.132 138.339 103.733 138.146 103.427 137.831C103.122 137.517 102.84 137.178 102.629 136.815C102.37 136.476 102.276 136.065 102.135 135.702C101.924 134.952 101.877 134.226 101.971 133.645C102.112 132.459 102.605 131.806 102.605 131.806L102.629 131.758Z" fill="#070000"/>
<path d="M117.475 109.06H124.522C124.522 109.06 122.196 103.591 117.475 109.06Z" fill="#070000"/>
<path d="M123.487 114.069C123.487 115.521 122.712 116.706 121.772 116.706C120.833 116.706 120.058 115.521 120.058 114.069C120.058 112.617 120.833 111.431 121.772 111.431C122.712 111.431 123.487 112.617 123.487 114.069Z" fill="#070000"/>
<path d="M105.964 109.06H98.917C98.917 109.06 101.243 103.591 105.964 109.06Z" fill="#070000"/>
<path d="M99.9736 114.069C99.9736 115.521 100.749 116.706 101.688 116.706C102.628 116.706 103.403 115.521 103.403 114.069C103.403 112.617 102.628 111.431 101.688 111.431C100.749 111.431 99.9736 112.617 99.9736 114.069Z" fill="#070000"/>
<path d="M193.323 112.544C193.487 114.456 193.417 116.344 193.229 118.183C193.041 120.022 192.783 121.861 192.407 123.675V123.724C192.289 124.208 191.937 124.547 191.491 124.619C191.209 124.668 190.833 124.764 190.528 124.861C190.199 124.982 189.893 125.079 189.612 125.2C189.024 125.466 188.649 125.781 188.578 126.071C188.461 126.386 188.696 127.112 189.118 127.717C189.518 128.346 190.034 128.951 190.551 129.604C189.776 129.362 189.048 128.999 188.367 128.491C188.014 128.249 187.709 127.934 187.404 127.523C187.122 127.136 186.863 126.603 186.863 125.974C186.863 125.321 187.122 124.692 187.474 124.256C187.826 123.821 188.226 123.53 188.625 123.264C189.024 123.022 189.424 122.804 189.823 122.659C190.246 122.514 190.622 122.369 191.091 122.272L190.175 123.216C190.481 121.401 190.904 119.586 191.397 117.795C191.914 116.005 192.501 114.238 193.37 112.52L193.323 112.544Z" fill="#070000"/>
<path d="M201.192 131.854C201.192 131.854 201.591 132.58 201.521 133.766C201.521 134.371 201.356 135.048 201.028 135.774C200.816 136.113 200.675 136.5 200.37 136.791C200.111 137.13 199.783 137.396 199.43 137.662C199.078 137.928 198.679 138.049 198.303 138.218C197.903 138.339 197.504 138.388 197.128 138.436C196.377 138.485 195.695 138.364 195.155 138.17C194.615 138.025 194.215 137.71 193.934 137.541C193.652 137.347 193.511 137.226 193.511 137.226C193.511 137.226 193.699 137.154 194.004 137.081C194.309 136.984 194.756 136.936 195.226 136.791C195.46 136.718 195.719 136.646 195.977 136.597C196.236 136.5 196.47 136.404 196.729 136.355C197.222 136.137 197.715 135.968 198.115 135.629C198.561 135.387 198.913 134.976 199.289 134.613C199.618 134.202 199.971 133.766 200.229 133.355C200.793 132.459 201.192 131.854 201.192 131.854Z" fill="#070000"/>
<path d="M190.246 106.906L183.316 105.696C183.316 105.696 186.488 100.712 190.246 106.906Z" fill="#070000"/>
<path d="M183.504 110.826C183.27 112.278 183.833 113.561 184.773 113.73C185.712 113.9 186.652 112.859 186.91 111.407C187.145 109.955 186.582 108.673 185.642 108.503C184.702 108.334 183.763 109.375 183.504 110.826Z" fill="#070000"/>
<path d="M201.568 108.891L208.498 110.1C208.498 110.1 207.089 104.317 201.568 108.891Z" fill="#070000"/>
<path d="M206.689 114.892C206.454 116.344 205.491 117.36 204.551 117.215C203.612 117.045 203.048 115.739 203.283 114.311C203.518 112.859 204.481 111.843 205.42 111.988C206.36 112.157 206.924 113.464 206.689 114.892Z" fill="#070000"/>
</g>
<defs>
<clipPath id="clip0_346_9416">
<rect width="296.703" height="224" fill="white"/>
</clipPath>
</defs>
</svg>
