<svg width="50" height="50" viewBox="0 0 50 50" fill="none" xmlns="http://www.w3.org/2000/svg">
<path d="M25 50C38.8071 50 50 38.8071 50 25C50 11.1929 38.8071 0 25 0C11.1929 0 0 11.1929 0 25C0 38.8071 11.1929 50 25 50Z" fill="#0971BD"/>
<path fill-rule="evenodd" clip-rule="evenodd" d="M13.334 17.891C13.334 17.891 23.396 23.5969 25.349 23.5969C27.396 23.5969 37.349 18 37.349 18L37.365 17C37.365 15.896 36.469 15 35.362 15H15.336C14.23 15 13.334 15.896 13.334 17V17.891ZM37.349 21C37.349 21 27.49 26.3469 25.349 26.3469C23.396 26.3469 13.349 21 13.35 21L13.334 33C13.334 34.104 14.231 35 15.336 35H35.362C36.469 35 37.365 34.104 37.365 33L37.349 21Z" fill="white"/>
</svg>
