<svg width="101" height="126" viewBox="0 0 101 126" fill="none" xmlns="http://www.w3.org/2000/svg">
<path d="M96.4054 22.4714C92.3769 12.522 85.9708 7.26349 77.8788 7.26349C65.715 7.26489 54.8355 18.1318 49.393 24.9186C48.8059 20.0046 47.7224 14.4114 47.7015 14.318C46.137 7.20353 42.7429 1.29107 42.5992 1.04286C42.394 0.688666 42.0893 0.402494 41.7229 0.219813C41.3566 0.0371311 40.9447 -0.0340295 40.5382 0.0151496L18.2787 2.72038C18.2591 2.72317 18.2438 2.73293 18.2257 2.73572C18.0217 2.76398 17.8233 2.82323 17.6372 2.91142L17.5996 2.92536L17.587 2.92955C17.2844 3.08294 10.1644 6.76986 9.25938 14.2818C8.71136 18.9113 8.91634 23.4028 9.10878 25.8515C-0.182434 34.6937 -0.0680896 46.7473 0.0169718 55.1321L0.0225492 55.6592C0.0225492 56.0009 0.0225489 56.0009 2.7975 64.5544C2.94352 65.0034 3.23718 65.3899 3.6307 65.6508C4.02422 65.9117 4.49445 66.0319 4.96491 65.9916C5.43536 65.9514 5.87837 65.7531 6.22185 65.4292C6.56534 65.1052 6.7891 64.6745 6.85674 64.2072C7.15236 63.2157 12.4248 46.7027 25.2913 39.0388C27.245 37.7879 29.2856 36.6783 31.3976 35.7186C31.0186 36.775 30.8238 37.8886 30.8217 39.0109C30.8217 44.4548 35.2519 48.885 40.6958 48.885C42.2339 48.8839 43.7501 48.5209 45.1218 47.8252C47.0099 64.1263 45.6085 84.3639 41.0402 106.882C25.9272 108.283 13.5041 114.113 8.40597 122.3C8.11233 122.771 8.01773 123.339 8.14299 123.879C8.26826 124.42 8.60312 124.889 9.07391 125.182C9.54471 125.476 10.1129 125.57 10.6534 125.445C11.194 125.32 11.6626 124.985 11.9562 124.514C16.1717 117.744 27.0609 112.641 40.1339 111.169C40.0432 111.588 39.9596 112.001 39.8661 112.42C39.8578 112.461 39.8578 112.5 39.8522 112.54C39.7791 112.947 39.8357 113.367 40.0139 113.741C40.0418 113.802 40.0711 113.862 40.1046 113.921C40.2417 114.151 40.4193 114.355 40.6289 114.522C40.6888 114.569 40.753 114.61 40.8171 114.65C40.8506 114.671 40.8785 114.696 40.9134 114.716L41.0375 114.777L41.0598 114.788C43.4917 116.063 46.7254 116.768 50.2004 116.768C52.5375 116.768 54.8537 116.435 56.9021 115.803C56.9244 115.796 56.9439 115.784 56.9662 115.775C57.0025 115.763 57.0346 115.746 57.0694 115.732C57.273 115.65 57.4627 115.545 57.6244 115.411C57.7927 115.267 57.9395 115.094 58.0539 114.904C58.0693 114.879 58.0874 114.856 58.1027 114.83C58.2115 114.637 58.284 114.427 58.3286 114.209C58.3328 114.191 58.344 114.176 58.3481 114.158C58.496 113.295 58.6256 112.427 58.7609 111.561C70.6332 113.41 80.2466 118.285 84.1175 124.517C84.4119 124.987 84.8802 125.321 85.4201 125.446C85.96 125.571 86.5275 125.477 86.9985 125.185C87.9802 124.576 88.2814 123.286 87.6706 122.306C83.101 114.948 72.605 109.464 59.3661 107.418C62.2414 86.1935 61.7046 64.2323 57.7792 43.3616C61.2109 42.2126 63.6931 38.9733 63.6931 35.1608C63.6912 33.5825 63.2581 32.0347 62.4404 30.6847C61.6227 29.3347 60.4517 28.2339 59.0537 27.5011C62.1369 26.6463 65.9437 26.0119 70.5286 26.0119L71.2998 26.0174L71.5368 26.016C84.7032 26.016 95.0612 41.6841 96.4277 44.4897C96.5121 44.8037 96.6688 45.0936 96.8852 45.3363C97.1017 45.5789 97.372 45.7675 97.6744 45.8869L97.68 45.8883C98.0552 46.0369 98.4653 46.0739 98.8611 45.995C99.2569 45.9161 99.6215 45.7246 99.9111 45.4435L99.9292 45.4254C100.157 45.2009 100.334 44.9234 100.44 44.6082C100.541 44.3084 100.636 44.0253 100.505 43.4996C100.889 38.99 98.8123 28.4131 96.4054 22.4714ZM32.2343 15.1184C32.6875 15.4991 33.1309 15.8882 33.559 16.2912C35.0636 17.7079 36.9852 19.6978 39.141 22.3166C35.5907 20.593 31.498 19.1846 27.3858 18.8067C28.7273 16.0206 31.056 15.2983 32.2343 15.1184ZM39.6207 4.34073C40.6317 6.32642 42.5881 10.5377 43.6172 15.2174C44.207 17.9031 44.6407 20.5902 44.9531 22.9524C41.6203 18.4749 38.6153 15.3053 36.4288 13.2457C35.7843 12.6503 35.1182 12.0786 34.432 11.5319C34.3273 11.4196 34.2104 11.3195 34.0833 11.2335C31.4158 9.11253 28.5334 7.34437 26.0206 5.99315L39.6207 4.34073ZM13.412 14.7796C13.9001 10.7315 17.1938 8.12805 18.7096 7.12823C20.4233 7.85056 24.2887 9.59919 28.1904 12.1427C26.0541 13.2959 23.9555 15.3638 22.8971 18.836C19.8809 19.1665 17.0906 20.1245 14.6113 21.7044C14.0953 22.0112 13.6031 22.3277 13.122 22.6484C13.0509 20.4159 13.0746 17.627 13.412 14.7796ZM23.0965 35.4802C13.9726 40.9129 7.91095 50.8191 4.91985 57.5431L4.20032 55.3232L4.19892 55.0903C4.1041 45.7294 3.97302 32.9102 16.8047 25.2672C19.2896 23.6845 22.1315 22.8827 25.2537 22.8827C31.4074 22.8827 37.5234 25.9352 41.5311 28.5177C37.1985 29.0043 30.6948 30.64 23.0965 35.4802ZM35.0037 39.0137C35.0037 35.8762 37.5569 33.3229 40.6944 33.3229C43.8319 33.3229 46.3852 35.8762 46.3852 39.0137C46.3852 42.1512 43.8319 44.7044 40.6944 44.7044C37.5569 44.7044 35.0037 42.1526 35.0037 39.0137ZM44.3144 111.646C45.8334 104.655 47.087 97.6092 48.0725 90.5232L51.0147 90.632L51.1695 86.4514L48.6093 86.3566C50.2478 72.7552 50.8293 58.0451 48.8966 44.5036C49.3738 43.7897 49.7549 43.0162 50.0303 42.2028C51.0691 42.9433 52.2753 43.4578 53.5833 43.6809C55.3435 52.9564 56.4261 62.3477 56.8226 71.7805L54.1118 71.4695L53.6349 75.6249L56.9565 76.0056C57.1342 84.0626 56.8227 92.1229 56.0236 100.142H52.7927V104.325H55.5565C55.3712 105.848 55.1676 107.369 54.9457 108.887L54.9345 108.934L54.9331 108.973C54.7784 110.026 54.6054 111.076 54.4339 112.125C53.1008 112.423 51.6618 112.579 50.2018 112.579C48.0404 112.582 45.9808 112.245 44.3144 111.646ZM55.0391 39.63C53.8539 39.6286 52.7176 39.1571 51.8796 38.319C51.0415 37.4809 50.57 36.3447 50.5685 35.1594C50.5685 32.6941 52.5737 30.6888 55.0391 30.6888C57.5045 30.6888 59.5097 32.6941 59.5097 35.1594C59.5082 36.3447 59.0368 37.4809 58.1987 38.319C57.3606 39.1571 56.2243 39.6286 55.0391 39.63ZM71.5382 21.8313L71.3012 21.8327L70.53 21.8271C64.4168 21.8271 59.4191 22.8674 55.5662 24.1907C60.9906 18.3926 69.3866 11.4468 77.8802 11.4468C81.7219 11.4468 84.9417 12.9319 87.7236 15.9886C92.4759 21.208 94.7154 29.8382 95.7068 36.0742C91.2209 30.4978 82.4888 21.8313 71.5382 21.8313Z" fill="#FF6154"/>
</svg>
