<svg width="50" height="50" viewBox="0 0 50 50" fill="none" xmlns="http://www.w3.org/2000/svg">
<path d="M0 25C0 11.1929 11.1929 0 25 0C38.8071 0 50 11.1929 50 25C50 38.8071 38.8071 50 25 50C11.1929 50 0 38.8071 0 25Z" fill="#6FD454"/>
<path d="M17.6786 12.551C17.9822 12.5255 18.2424 12.5995 18.4107 12.8776C18.7883 13.4898 19.1684 14.1021 19.5281 14.7296C19.9439 15.4541 20.3266 16.199 20.7347 16.9312C20.8393 17.1276 20.9848 17.3062 21.1072 17.495C21.2194 17.6736 21.3266 17.8572 21.4312 18.0358C21.6455 18.4414 21.6353 18.8496 21.3164 19.1736C20.8623 19.6379 20.3623 20.069 19.8801 20.5103C19.4771 20.8802 19.0587 21.2348 18.6658 21.6124C18.3597 21.9083 18.2806 22.2782 18.4873 22.6685C18.8061 23.2655 19.1225 23.8624 19.472 24.4466C20.7679 26.6074 22.4236 28.4441 24.5154 29.86C25.3216 30.4085 26.1609 30.911 27.0078 31.3906C27.8063 31.8422 28.1175 31.7656 28.7374 31.0743C29.314 30.434 29.8701 29.7835 30.4441 29.138C30.5819 28.9824 30.7477 28.8447 30.9084 28.712C31.2349 28.4365 31.5921 28.4059 31.9671 28.5947C32.0717 28.6457 32.1839 28.6916 32.2758 28.7579C33.2707 29.4697 34.3829 29.9722 35.434 30.5768C35.9978 30.9008 36.5462 31.2478 37.0998 31.5794C37.3983 31.7554 37.5182 32.0131 37.4978 32.3677C37.4417 33.3652 37.2758 34.3448 36.6968 35.1866C36.4544 35.5361 36.11 35.8422 35.7631 36.0897C34.8013 36.7632 33.7273 37.179 32.5844 37.4341C31.5462 37.6662 30.5104 37.5821 29.5155 37.2708C27.5946 36.679 25.7017 36.0004 23.9593 34.9723C22.3776 34.0361 20.9388 32.906 19.6072 31.6432C17.9209 30.0386 16.4158 28.2885 15.1989 26.2962C14.4056 25.0028 13.8392 23.6099 13.3265 22.1889C13.0152 21.3318 12.7091 20.4823 12.5713 19.5741C12.4132 18.546 12.5229 17.5562 12.852 16.5817C13.1479 15.7016 13.5178 14.8597 14.0765 14.1072C14.5153 13.523 15.0637 13.0944 15.7729 12.9031C16.3418 12.7526 16.9158 12.6327 17.4872 12.5C17.5612 12.5587 17.6199 12.5587 17.6786 12.551Z" fill="white"/>
</svg>
