<svg width="32" height="31" viewBox="0 0 32 31" fill="none" xmlns="http://www.w3.org/2000/svg">
<path d="M0.834961 30.5448L2.97857 22.7606C1.6533 20.4758 0.958074 17.8884 0.965316 15.2432C0.965316 6.95455 7.74376 0.215515 16.0647 0.215515C20.1057 0.215515 23.9005 1.77955 26.7466 4.61931C29.5999 7.45907 31.1714 11.2358 31.1642 15.2504C31.1642 23.539 24.3857 30.2781 16.0575 30.2781H16.0503C13.5228 30.2781 11.0388 29.6438 8.83005 28.4474L0.834961 30.5448ZM9.21388 25.7301L9.67012 26.004C11.5965 27.1428 13.8053 27.741 16.0575 27.7482H16.0647C22.9808 27.7482 28.615 22.148 28.615 15.2576C28.615 11.9205 27.3115 8.78525 24.9433 6.42119C22.5752 4.05712 19.4178 2.75977 16.0647 2.75977C9.1487 2.75256 3.51448 8.3528 3.51448 15.2432C3.51448 17.6 4.17349 19.8993 5.43359 21.8885L5.73051 22.3642L4.46317 26.9698L9.21388 25.7301Z" fill="white"/>
<path d="M1.36328 30.0186L3.43447 22.5012C2.15265 20.3029 1.47915 17.8019 1.47915 15.2504C1.48639 7.25006 8.02586 0.741669 16.0644 0.741669C19.9678 0.741669 23.625 2.25525 26.3769 4.9941C29.1288 7.73296 30.6424 11.38 30.6424 15.2576C30.6424 23.258 24.0957 29.7663 16.0644 29.7663H16.0572C13.6166 29.7663 11.2195 29.1537 9.09042 28.0005L1.36328 30.0186Z" fill="url(#paint0_linear_808_3038)"/>
<path d="M0.834961 30.5448L2.97857 22.7606C1.6533 20.4758 0.958074 17.8884 0.965316 15.2432C0.965316 6.95455 7.74376 0.215515 16.0647 0.215515C20.1057 0.215515 23.9005 1.77955 26.7466 4.61931C29.5999 7.45907 31.1714 11.2358 31.1642 15.2504C31.1642 23.539 24.3857 30.2781 16.0575 30.2781H16.0503C13.5228 30.2781 11.0388 29.6438 8.83005 28.4474L0.834961 30.5448ZM9.21388 25.7301L9.67012 26.004C11.5965 27.1428 13.8053 27.741 16.0575 27.7482H16.0647C22.9808 27.7482 28.615 22.148 28.615 15.2576C28.615 11.9205 27.3115 8.78525 24.9433 6.42119C22.5752 4.05712 19.4178 2.75977 16.0647 2.75977C9.1487 2.75256 3.51448 8.3528 3.51448 15.2432C3.51448 17.6 4.17349 19.8993 5.43359 21.8885L5.73051 22.3642L4.46317 26.9698L9.21388 25.7301Z" fill="url(#paint1_linear_808_3038)"/>
<path fill-rule="evenodd" clip-rule="evenodd" d="M12.2917 8.95825C12.0092 8.3312 11.7123 8.31678 11.4444 8.30958C11.2271 8.30237 10.9736 8.30237 10.7202 8.30237C10.4667 8.30237 10.0612 8.39607 9.71354 8.77086C9.36593 9.14565 8.39551 10.0538 8.39551 11.9061C8.39551 13.7513 9.74975 15.5387 9.93804 15.791C10.1263 16.0432 12.5524 19.9569 16.3834 21.4633C19.5698 22.7174 20.2216 22.4651 20.9096 22.4003C21.5975 22.3354 23.1401 21.4921 23.4587 20.6128C23.7701 19.7335 23.7701 18.9839 23.676 18.8253C23.5818 18.6668 23.3284 18.5731 22.9518 18.3857C22.5752 18.1983 20.7213 17.2901 20.3737 17.1604C20.026 17.0379 19.7726 16.973 19.5264 17.3478C19.2729 17.7226 18.5487 18.5659 18.3314 18.8181C18.1142 19.0704 17.8897 19.0992 17.5131 18.9118C17.1365 18.7244 15.9199 18.328 14.4787 17.0451C13.3562 16.0505 12.5958 14.818 12.3786 14.4432C12.1613 14.0684 12.3568 13.8666 12.5451 13.6792C12.7117 13.5134 12.9217 13.2395 13.11 13.0233C13.2983 12.8071 13.3635 12.6485 13.4866 12.3962C13.6097 12.144 13.5518 11.9277 13.4576 11.7404C13.3635 11.5602 12.6248 9.70063 12.2917 8.95825Z" fill="white"/>
<defs>
<linearGradient id="paint0_linear_808_3038" x1="16.0021" y1="30.0172" x2="16.0021" y2="0.740644" gradientUnits="userSpaceOnUse">
<stop stop-color="#20B038"/>
<stop offset="1" stop-color="#60D66A"/>
</linearGradient>
<linearGradient id="paint1_linear_808_3038" x1="16.0025" y1="30.5419" x2="16.0025" y2="0.215515" gradientUnits="userSpaceOnUse">
<stop stop-color="#F9F9F9"/>
<stop offset="1" stop-color="white"/>
</linearGradient>
</defs>
</svg>
